# xmcd
#
# Track frame offsets: 
#        150
#        14640
#        28885
#        67155
#        102107
#        135055
#
# Disc length: 2190 seconds
#
# Revision: 1
# Processed by: cddbd v1.5.2PL0 Copyright (c) Steve Scherf et al.
# Submitted via: ExactAudioCopy v0.99pb4
#
DISCID=4b088c06
DTITLE=Blank and Jones - DJ Culture
DYEAR=2000
DGENRE=Club
TTITLE0=DJ Culture (New Short Cut)
TTITLE1=DJ Culture (Short)
TTITLE2=DJ Culture (New Club Mix)
TTITLE3=DJ Culture (Kay Cee Remix)
TTITLE4=DJ Culture (Remix)
TTITLE5=DJ Culture (Thomas Schumacher Remix)
EXTD=
EXTT0=
EXTT1=
EXTT2=
EXTT3=
EXTT4=
EXTT5=
PLAYORDER=
